<?xml version="1.0" encoding="utf-8"?>
<!-- Generator: Adobe Illustrator 19.2.0, SVG Export Plug-In . SVG Version: 6.00 Build 0)  -->
<svg version="1.1" id="Layer_1" xmlns="http://www.w3.org/2000/svg" xmlns:xlink="http://www.w3.org/1999/xlink" x="0px" y="0px"
	 viewBox="0 0 524.1 178.4" style="enable-background:new 0 0 524.1 178.4;" xml:space="preserve">
<g>
	<path d="M351.4,0h-5.7H178.4H173H0v178.4h173h5.4h167.3h5.7h172.7v-2.7V0H351.4z M173,173H5.4V5.4H173V173z M345.7,173H178.4V5.4
		h167.3V173z M518.7,173H351.4V5.4h167.3V173z"/>
	<path d="M69.6,69.5c1.9-2.5,4.6-4.6,8.1-6.3c3.4-1.7,6.7-2.6,9.7-2.6c6.6,0,11.3,1.7,14.2,5.2c2.9,3.5,4.4,9,4.4,16.5v51h20.7V79
		c0-11.3-3.1-20.1-9.2-26.4c-6.1-6.3-14.4-9.5-25-9.5c-11,0-19.3,3.3-24.9,9.8l-3.8-8.3H49v88.7h20.7V69.5z"/>
	<path d="M242.8,131.2c5.4,2.6,11.3,3.9,17.8,3.9c13.5,0,24.2-3.9,32-11.8c7.8-7.8,11.7-19,11.7-33.5c0-31.1-14.1-46.7-42.4-46.7
		c-7.6,0-13.9,2.5-19.1,7.5v-6h-20.7V164h20.7V131.2z M242.8,66.6c3.8-3.8,8.2-5.8,13.2-5.8c9.5,0,16.3,2.1,20.5,6.4
		c4.1,4.3,6.2,11.6,6.2,22.1c0,9.8-2.1,17-6.2,21.5c-4.2,4.5-11,6.8-20.5,6.8c-5,0-9.4-1.5-13.1-4.5V66.6z"/>
	<path d="M427.8,83c0-6.3,1.8-11.6,5.6-15.9c3.7-4.3,8-6.5,12.7-6.5c4.4,0,8.4,1.2,12.1,3.5l8.7-17.7c-3.7-2.2-9.1-3.2-16.1-3.2
		c-9.6,0-17.2,3.3-23,10v-8.5h-20.7v88.7h20.7V83z"/>
</g>
</svg>
